<svg width="220" height="120" viewBox="0 0 220 120" fill="none" xmlns="http://www.w3.org/2000/svg">
<path fill-rule="evenodd" clip-rule="evenodd" d="M48 102H139C139.515 102 140.017 101.944 140.5 101.839C140.983 101.944 141.485 102 142 102H194C197.866 102 201 98.866 201 95C201 91.134 197.866 88 194 88H188C184.134 88 181 84.866 181 81C181 77.134 184.134 74 188 74H207C210.866 74 214 70.866 214 67C214 63.134 210.866 60 207 60H185C188.866 60 192 56.866 192 53C192 49.134 188.866 46 185 46H121C124.866 46 128 42.866 128 39C128 35.134 124.866 32 121 32H64C60.134 32 57 35.134 57 39C57 42.866 60.134 46 64 46H24C20.134 46 17 49.134 17 53C17 56.866 20.134 60 24 60H49C52.866 60 56 63.134 56 67C56 70.866 52.866 74 49 74H9C5.13401 74 2 77.134 2 81C2 84.866 5.13401 88 9 88H48C44.134 88 41 91.134 41 95C41 98.866 44.134 102 48 102ZM211 102C214.866 102 218 98.866 218 95C218 91.134 214.866 88 211 88C207.134 88 204 91.134 204 95C204 98.866 207.134 102 211 102Z" fill="#F4FFF9"/>
<path fill-rule="evenodd" clip-rule="evenodd" d="M77 108C64.8497 108 55 98.3741 55 86.5C55 74.6259 64.8497 65 77 65C77.5167 65 78.0292 65.0174 78.537 65.0517C78.1842 63.0878 78 61.0654 78 59C78 40.2223 93.2223 25 112 25C126.991 25 139.716 34.702 144.239 48.1695C145.31 48.0575 146.398 48 147.5 48C164.345 48 178 61.4315 178 78C178 93.7406 165.675 106.727 150 107.978V108H93.5078H77ZM88.996 108H82.0314H88.996Z" fill="white"/>
<path d="M88.996 108H82.0314M77 108C64.8497 108 55 98.3741 55 86.5C55 74.6259 64.8497 65 77 65C77.5167 65 78.0292 65.0174 78.537 65.0517C78.1842 63.0878 78 61.0654 78 59C78 40.2223 93.2223 25 112 25C126.991 25 139.716 34.702 144.239 48.1695C145.31 48.0575 146.398 48 147.5 48C164.345 48 178 61.4315 178 78C178 93.7406 165.675 106.727 150 107.978V108H93.5078H77Z" stroke="#61E4C5" stroke-width="2.5" stroke-linecap="round"/>
<path fill-rule="evenodd" clip-rule="evenodd" d="M101.612 32.3426C101.612 64.5657 130.633 91.118 168 94.7029C163.317 100.461 156.086 104.368 147.847 104.981V105H80.7431C72.6013 105 59 101.57 59 86.5483C59 71.527 69.5742 68.0967 80.7431 68.0967C81.218 68.0967 81.6891 68.1116 82.1559 68.141C81.8316 66.4556 81.7746 64.7184 81.6623 62.9474C80.9038 50.9842 86.1229 35.907 101.63 31C101.618 31.4473 101.612 31.8944 101.612 32.3426ZM112.116 82.7579C109.078 82.7579 106.614 85.1921 106.614 88.1949C106.614 91.1976 109.078 93.6318 112.116 93.6318C115.155 93.6318 117.618 91.1976 117.618 88.1949C117.618 85.1921 115.155 82.7579 112.116 82.7579Z" fill="#F4FFF9"/>
<path d="M112.5 94C115.538 94 118 91.5376 118 88.5C118 85.4624 115.538 83 112.5 83C109.462 83 107 85.4624 107 88.5C107 91.5376 109.462 94 112.5 94Z" stroke="#61E4C5" stroke-width="2.5"/>
<path d="M97 76.9998L104 71.5066L97 66.2773" stroke="#61E4C5" stroke-width="2.5" stroke-linecap="round" stroke-linejoin="round"/>
<path d="M128 76.9998L121 71.5066L128 66.2773" stroke="#61E4C5" stroke-width="2.5" stroke-linecap="round" stroke-linejoin="round"/>
<path d="M122 35C128.509 36.7226 133.648 41.8129 135.44 48.2932" stroke="#9AFECE" stroke-width="2.5" stroke-linecap="round"/>
<path d="M143 18C144.657 18 146 16.6569 146 15C146 13.3431 144.657 12 143 12C141.343 12 140 13.3431 140 15C140 16.6569 141.343 18 143 18Z" stroke="#9AFECE" stroke-width="2"/>
<path d="M174 34C175.657 34 177 32.6569 177 31C177 29.3431 175.657 28 174 28C172.343 28 171 29.3431 171 31C171 32.6569 172.343 34 174 34Z" fill="#9AFECE"/>
<path d="M150.758 25.7578L159.116 34.116M159.243 25.7578L150.885 34.116L159.243 25.7578Z" stroke="#9AFECE" stroke-width="2.5" stroke-linecap="round" stroke-linejoin="round"/>
<path d="M56.4043 43.5957L62.4043 49.5957M62.4043 43.5957L56.4043 49.5957L62.4043 43.5957Z" stroke="#9AFECE" stroke-width="2.5" stroke-linecap="round" stroke-linejoin="round"/>
<path d="M70 37C71.6569 37 73 35.6569 73 34C73 32.3431 71.6569 31 70 31C68.3431 31 67 32.3431 67 34C67 35.6569 68.3431 37 70 37Z" fill="#9AFECE"/>
</svg>
