<svg width="160" height="160" viewBox="0 0 160 160" fill="none" xmlns="http://www.w3.org/2000/svg">
<rect x="0.8" y="0.8" width="158.4" height="158.4" rx="79.2" fill="#F4FFF9"/>
<rect x="0.8" y="0.8" width="158.4" height="158.4" rx="79.2" stroke="#A5BAAD" stroke-width="1.6" stroke-dasharray="12 8"/>
<path d="M50 66.6663C50 68.4997 51.5 69.9997 53.3333 69.9997C55.1667 69.9997 56.6667 68.4997 56.6667 66.6663V59.9997H63.3333C65.1667 59.9997 66.6667 58.4997 66.6667 56.6663C66.6667 54.833 65.1667 53.333 63.3333 53.333H56.6667V46.6663C56.6667 44.833 55.1667 43.333 53.3333 43.333C51.5 43.333 50 44.833 50 46.6663V53.333H43.3333C41.5 53.333 40 54.833 40 56.6663C40 58.4997 41.5 59.9997 43.3333 59.9997H50V66.6663Z" fill="#9AFECE"/>
<path d="M83.332 96.667C88.8549 96.667 93.332 92.1898 93.332 86.667C93.332 81.1441 88.8549 76.667 83.332 76.667C77.8092 76.667 73.332 81.1441 73.332 86.667C73.332 92.1898 77.8092 96.667 83.332 96.667Z" fill="#9AFECE"/>
<path d="M110 59.9997H99.4333L95.3 55.4997C94.6788 54.8177 93.9222 54.2727 93.0785 53.8996C92.2348 53.5266 91.3225 53.3336 90.4 53.333H69.0667C69.6333 54.333 70 55.433 70 56.6663C70 60.333 67 63.333 63.3333 63.333H60V66.6663C60 70.333 57 73.333 53.3333 73.333C52.1 73.333 51 72.9663 50 72.3997V106.666C50 110.333 53 113.333 56.6667 113.333H110C113.667 113.333 116.667 110.333 116.667 106.666V66.6663C116.667 62.9997 113.667 59.9997 110 59.9997ZM83.3333 103.333C74.1333 103.333 66.6667 95.8663 66.6667 86.6663C66.6667 77.4663 74.1333 69.9997 83.3333 69.9997C92.5333 69.9997 100 77.4663 100 86.6663C100 95.8663 92.5333 103.333 83.3333 103.333Z" fill="#9AFECE"/>
</svg>
