<svg width="220" height="120" viewBox="0 0 220 120" fill="none" xmlns="http://www.w3.org/2000/svg">
<path fill-rule="evenodd" clip-rule="evenodd" d="M186 27C189.866 27 193 30.134 193 34C193 37.866 189.866 41 186 41H146C149.866 41 153 44.134 153 48C153 51.866 149.866 55 146 55H168C171.866 55 175 58.134 175 62C175 65.866 171.866 69 168 69H157.826C152.952 69 149 72.134 149 76C149 78.5773 151 80.9107 155 83C158.866 83 162 86.134 162 90C162 93.866 158.866 97 155 97H72C68.134 97 65 93.866 65 90C65 86.134 68.134 83 72 83H33C29.134 83 26 79.866 26 76C26 72.134 29.134 69 33 69H73C76.866 69 80 65.866 80 62C80 58.134 76.866 55 73 55H48C44.134 55 41 51.866 41 48C41 44.134 44.134 41 48 41H88C84.134 41 81 37.866 81 34C81 30.134 84.134 27 88 27H186ZM186 55C189.866 55 193 58.134 193 62C193 65.866 189.866 69 186 69C182.134 69 179 65.866 179 62C179 58.134 182.134 55 186 55Z" fill="#F4FFF9"/>
<path d="M143 82.5L148.5 80.5" stroke="#9AFECE" stroke-width="2" stroke-linecap="round"/>
<path d="M141 87.5L149.5 84.5" stroke="#9AFECE" stroke-width="2" stroke-linecap="round"/>
<path d="M79 47.5L115 57.5M79 47.5L115 37M79 47.5L65.5688 61.8905C65.3112 62.1665 65.4407 62.6175 65.8055 62.7148L77.8446 65.9252M79 47.5L69.0269 36.1022C68.7836 35.8241 68.9156 35.3872 69.2722 35.2904L103.227 26.074C103.397 26.0281 103.577 26.0741 103.704 26.1952L115 37M115 57.5L151.5 47.5M115 57.5L127.302 71.2786C127.424 71.4151 127.611 71.4741 127.789 71.4324L153.5 65.4221M115 57.5L102.704 72.2547C102.58 72.4043 102.38 72.4679 102.191 72.4177L77.8446 65.9252M151.5 47.5L115 37M151.5 47.5L163.355 36.1193C163.637 35.8485 163.513 35.3732 163.135 35.2747L127.757 26.0669C127.596 26.0251 127.425 26.0657 127.301 26.1754L115 37M151.5 47.5L165.387 61.8663C165.657 62.1454 165.52 62.6123 165.142 62.7006L153.5 65.4221M115.5 102L153.156 89.6131C153.361 89.5456 153.5 89.3541 153.5 89.1381V65.4221M115.5 102L77.3588 89.6165C77.1464 89.5475 77.0055 89.3462 77.0135 89.123L77.8446 65.9252M115.5 102L115.167 78M115 67V71.5" stroke="#9AFECE" stroke-width="2" stroke-linecap="round"/>
</svg>
