<svg width="220" height="120" viewBox="0 0 220 120" fill="none" xmlns="http://www.w3.org/2000/svg">
<path fill-rule="evenodd" clip-rule="evenodd" d="M48 95H139C139.515 95 140.017 94.9444 140.5 94.8389C140.983 94.9444 141.485 95 142 95H194C197.866 95 201 91.866 201 88C201 84.134 197.866 81 194 81H188C184.134 81 181 77.866 181 74C181 70.134 184.134 67 188 67H207C210.866 67 214 63.866 214 60C214 56.134 210.866 53 207 53H185C188.866 53 192 49.866 192 46C192 42.134 188.866 39 185 39H121C124.866 39 128 35.866 128 32C128 28.134 124.866 25 121 25H64C60.134 25 57 28.134 57 32C57 35.866 60.134 39 64 39H24C20.134 39 17 42.134 17 46C17 49.866 20.134 53 24 53H49C52.866 53 56 56.134 56 60C56 63.866 52.866 67 49 67H9C5.13401 67 2 70.134 2 74C2 77.866 5.13401 81 9 81H48C44.134 81 41 84.134 41 88C41 91.866 44.134 95 48 95ZM211 95C214.866 95 218 91.866 218 88C218 84.134 214.866 81 211 81C207.134 81 204 84.134 204 88C204 91.866 207.134 95 211 95Z" fill="#F4FFF9"/>
<path d="M73.884 48.3192L105.229 64.7489C108.254 66.0703 109.739 66.6035 111.453 67.1366C113 67.5 114.502 67.2732 116.251 67.1366C118 67 118.5 67 122.915 64.7396L154.367 48.3098M73.884 48.3192C74.6694 47.2813 75.7586 46.4585 77.9372 44.813M73.884 48.3192C73.1888 49.2413 72.6705 50.2843 72.3553 51.3953C72 52.6481 72 54.0132 72 56.7434V85.7656C72 91.0015 72 93.6197 73.0191 95.6206C73.9167 97.383 75.3426 98.8089 77.105 99.7064C79.1012 100.726 81.7192 100.726 86.9457 100.726H133.5M154.367 48.3098C155.026 49.2155 155.517 50.2321 155.817 51.3111C156.149 52.5219 156.149 53.8309 156.149 56.4348V76M154.367 48.3098C153.624 47.2813 152.6 46.4585 150.539 44.8083V44.813L124.364 28.7336C121 26.5 119.751 25.6033 117.942 25.0844C116.347 24.6293 114.659 24.6067 113.052 25.0189C111.183 25.7919 109.32 26.0849 105.991 28.4765L92.7323 36.1976M83.3935 41.6358L85.4877 40.4162L87.582 39.1967" stroke="#61E4C5" stroke-width="3" stroke-linecap="round" stroke-linejoin="round"/>
<path d="M79.1981 48.4212C78.4748 48.0767 78.4301 47.0639 79.1203 46.657L95.5 36.9997L114.575 26.2851C114.888 26.109 115.272 26.1147 115.58 26.3001L149.395 46.6471C150.081 47.0594 150.029 48.069 149.305 48.409L114.428 64.7988C114.157 64.9262 113.843 64.9253 113.573 64.7965L79.1981 48.4212Z" fill="white"/>
<path d="M74.5 93.0923V50.5L111.231 69.8071C112.655 70.556 114.353 70.5733 115.793 69.8534L153.5 51L155 99.5L79.4068 98.0914C76.6822 98.0407 74.5 95.8174 74.5 93.0923Z" fill="#F4FFF9"/>
<path fill-rule="evenodd" clip-rule="evenodd" d="M162.636 103.664C163.159 103.024 163.628 102.355 164.045 101.663C164.961 100.14 165.621 98.5047 166.025 96.8183C166.433 95.1127 166.578 93.3553 166.46 91.6106C166.357 90.0883 166.053 88.5756 165.548 87.1157C165.047 85.6673 164.347 84.2708 163.449 82.9682C162.914 82.192 162.308 81.449 161.631 80.7483C160.637 79.7196 159.547 78.84 158.39 78.1103C157.145 77.3263 155.822 76.7152 154.456 76.2777C152.744 75.7298 150.964 75.4542 149.183 75.4522C147.798 75.4506 146.412 75.6147 145.059 75.945C143.535 76.3169 142.052 76.8995 140.655 77.6937C139.428 78.3919 138.267 79.2535 137.205 80.2793C135.87 81.5684 134.788 83.0216 133.962 84.5767C133.152 86.0993 132.587 87.7197 132.266 89.3797C131.936 91.0899 131.866 92.8422 132.057 94.5728C132.304 96.8159 132.99 99.0227 134.117 101.055C134.838 102.355 135.739 103.583 136.821 104.704C138.539 106.483 140.545 107.815 142.694 108.699C145.306 109.773 148.13 110.184 150.903 109.925C153.23 109.708 155.521 109.019 157.623 107.856" fill="white"/>
<path d="M162.636 103.664C163.159 103.024 163.628 102.355 164.045 101.663C164.961 100.14 165.621 98.5047 166.025 96.8183C166.433 95.1127 166.578 93.3553 166.46 91.6106C166.357 90.0883 166.053 88.5756 165.548 87.1157C165.047 85.6673 164.347 84.2708 163.449 82.9682C162.914 82.192 162.308 81.449 161.631 80.7483C160.637 79.7196 159.547 78.84 158.39 78.1103C157.145 77.3263 155.822 76.7152 154.456 76.2777C152.744 75.7298 150.964 75.4542 149.183 75.4522C147.798 75.4506 146.412 75.6147 145.059 75.945C143.535 76.3169 142.052 76.8995 140.655 77.6937C139.428 78.3919 138.267 79.2535 137.205 80.2793C135.87 81.5684 134.788 83.0216 133.962 84.5767C133.152 86.0993 132.587 87.7197 132.266 89.3797C131.936 91.0899 131.866 92.8422 132.057 94.5728C132.304 96.8159 132.99 99.0227 134.117 101.055C134.838 102.355 135.739 103.583 136.821 104.704C138.539 106.483 140.545 107.815 142.694 108.699C145.306 109.773 148.13 110.184 150.903 109.925C153.23 109.708 155.521 109.019 157.623 107.856" stroke="#61E4C5" stroke-width="2.5" stroke-linecap="round" stroke-linejoin="round"/>
<path d="M156.783 88.4601L148.94 98.2883L143.828 93.3177" stroke="#61E4C5" stroke-width="2.5" stroke-linecap="round" stroke-linejoin="round"/>
<path fill-rule="evenodd" clip-rule="evenodd" d="M144.982 79.6913C144.25 79.966 143.534 80.2999 142.843 80.693C141.769 81.3038 140.754 82.0577 139.825 82.9552C139.444 83.3231 139.086 83.7063 138.752 84.1029M137.463 85.7452C137.198 86.1462 136.954 86.5573 136.731 86.9768C136.566 87.2867 136.413 87.6012 136.271 87.9197" fill="white"/>
<path d="M145.245 80.3935C145.633 80.248 145.83 79.8157 145.684 79.4279C145.539 79.04 145.106 78.8436 144.718 78.9891L145.245 80.3935ZM142.843 80.693L143.214 81.3449L143.214 81.3449L142.843 80.693ZM139.825 82.9552L139.304 82.4157L139.825 82.9552ZM138.179 83.62C137.912 83.9369 137.953 84.41 138.27 84.6767C138.586 84.9434 139.06 84.9027 139.326 84.5858L138.179 83.62ZM138.089 86.1591C138.317 85.8137 138.223 85.3483 137.877 85.1198C137.532 84.8912 137.066 84.9859 136.838 85.3313L138.089 86.1591ZM136.731 86.9768L137.393 87.3289L137.393 87.3289L136.731 86.9768ZM135.586 87.615C135.418 87.9935 135.588 88.4367 135.966 88.605C136.345 88.7733 136.788 88.6029 136.956 88.2244L135.586 87.615ZM144.718 78.9891C143.949 79.2776 143.198 79.6282 142.472 80.0411L143.214 81.3449C143.87 80.9716 144.55 80.6545 145.245 80.3935L144.718 78.9891ZM142.472 80.0411C141.344 80.6827 140.278 81.4743 139.304 82.4157L140.346 83.4948C141.229 82.6412 142.194 81.925 143.214 81.3449L142.472 80.0411ZM139.304 82.4157C138.904 82.8016 138.529 83.2037 138.179 83.62L139.326 84.5858C139.643 84.209 139.983 83.8447 140.346 83.4948L139.304 82.4157ZM136.838 85.3313C136.559 85.7524 136.303 86.1842 136.068 86.6248L137.393 87.3289C137.605 86.9304 137.837 86.54 138.089 86.1591L136.838 85.3313ZM136.068 86.6248C135.895 86.9502 135.735 87.2805 135.586 87.615L136.956 88.2244C137.091 87.9219 137.236 87.6232 137.393 87.3289L136.068 86.6248Z" fill="#61E4C5"/>
<path d="M159 15V20.4" stroke="#61E4C5" stroke-width="2.5" stroke-linecap="round" stroke-linejoin="round"/>
<path d="M159 27.5996V32.9996" stroke="#61E4C5" stroke-width="2.5" stroke-linecap="round" stroke-linejoin="round"/>
<path d="M150 24.0002H155.4" stroke="#61E4C5" stroke-width="2.5" stroke-linecap="round" stroke-linejoin="round"/>
<path d="M162.6 24.0002H168" stroke="#61E4C5" stroke-width="2.5" stroke-linecap="round" stroke-linejoin="round"/>
<path d="M50.8516 89.7773H42.6758M57.1758 82H40H57.1758ZM64.1758 82H61.9546H64.1758Z" stroke="#9AFECE" stroke-width="2.5" stroke-linecap="round" stroke-linejoin="round"/>
</svg>
