<svg width="33" height="32" viewBox="0 0 33 32" fill="none" xmlns="http://www.w3.org/2000/svg">
<rect x="0.666992" width="32" height="32" rx="16" fill="#367E60"/>
<path d="M4.66797 25.9068H28.668V26.6668H4.66797V25.9068ZM6.06797 24.4268H27.268V25.1868H6.06797V24.4268Z" fill="#61E4C5"/>
<path d="M5.3877 25.146H27.9877V25.906H5.3877V25.146ZM6.7477 23.666H26.5477V24.426H6.7477V23.666Z" fill="#EBFFFA"/>
<path d="M5.78809 12.9868H27.5481V13.7468H5.78809V12.9868Z" fill="#9AFECE"/>
<path d="M4.66797 13.7065H28.668V14.4665H4.66797V13.7065Z" fill="#EBFFFA"/>
<path d="M16.668 3.78662L4.66797 10.3466L5.66797 11.8666L16.668 4.54662L27.668 11.8666L28.668 10.3466L16.668 3.78662Z" fill="#9AFECE"/>
<path d="M16.668 2.6665L4.66797 10.3465V11.5065L16.668 3.7865L28.668 11.5065V10.3465L16.668 2.6665Z" fill="#EBFFFA"/>
<path d="M16.668 4.54688L4.66797 12.2269V12.9869H28.668V12.2269L16.668 4.54688Z" fill="#EBFFFA"/>
<path d="M16.668 5.6665L6.70801 12.2265H26.628L16.668 5.6665Z" fill="#61E4C5"/>
<path d="M7.26855 15.1465H9.66855V22.9865H7.26855V15.1465Z" fill="#EBFFFA"/>
<path d="M6.98828 22.9868H9.98828V23.7068H6.98828V22.9868ZM6.98828 14.4668H9.98828V15.1468H6.98828V14.4668Z" fill="#9AFECE"/>
<path d="M7.50781 15.4668H7.78781V22.6668H7.50781V15.4668ZM9.14781 15.4668H9.42781V22.6668H9.14781V15.4668ZM8.58781 15.4668H8.86781V22.6668H8.58781V15.4668ZM8.06781 15.4668H8.34781V22.6668H8.06781V15.4668Z" fill="white"/>
<path d="M12.7471 15.1465H15.1471V22.9865H12.7471V15.1465Z" fill="#EBFFFA"/>
<path d="M12.4287 22.9868H15.4287V23.6668H12.4287V22.9868ZM12.4287 14.4668H15.4287V15.1468H12.4287V14.4668Z" fill="#9AFECE"/>
<path d="M12.9883 15.4668H13.2683V22.6668H12.9883V15.4668ZM14.6283 15.4668H14.9083V22.6668H14.6283V15.4668ZM14.0683 15.4668H14.3483V22.6668H14.0683V15.4668ZM13.5083 15.4668H13.7883V22.6668H13.5083V15.4668Z" fill="white"/>
<path d="M18.1865 15.1465H20.5865V22.9865H18.1865V15.1465Z" fill="#EBFFFA"/>
<path d="M17.9082 22.9868H20.9082V23.6668H17.9082V22.9868ZM17.9082 14.4668H20.9082V15.1468H17.9082V14.4668Z" fill="#9AFECE"/>
<path d="M18.4287 15.4668H18.7087V22.6668H18.4287V15.4668ZM20.0687 15.4668H20.3487V22.6668H20.0687V15.4668ZM19.5487 15.4668H19.8287V22.6668H19.5487V15.4668ZM18.9887 15.4668H19.2687V22.6668H18.9887V15.4668Z" fill="white"/>
<path d="M23.668 15.1465H26.068V22.9865H23.668V15.1465Z" fill="#EBFFFA"/>
<path d="M23.3877 22.9868H26.3877V23.7068H23.3877V22.9868ZM23.3877 14.4668H26.3877V15.1468H23.3877V14.4668Z" fill="#9AFECE"/>
<path d="M23.9082 15.4668H24.1882V22.6668H23.9082V15.4668ZM25.5482 15.4668H25.8282V22.6668H25.5482V15.4668ZM24.9882 15.4668H25.2682V22.6668H24.9882V15.4668ZM24.4682 15.4668H24.7482V22.6668H24.4682V15.4668Z" fill="white"/>
</svg>
