<svg width="33" height="32" viewBox="0 0 33 32" fill="none" xmlns="http://www.w3.org/2000/svg">
<rect x="0.333984" width="32" height="32" rx="16" fill="#367E60"/>
<path d="M27.6677 13.9355H5.00098C5.00098 13.9355 5.68098 20.2067 6.85209 21.9444C8.17431 23.8711 11.3099 26.6667 16.3343 26.6667C21.3588 26.6667 24.4943 23.8711 25.8165 21.9444C26.9877 20.2067 27.6677 13.9355 27.6677 13.9355Z" fill="#9AFECE"/>
<path d="M27.6677 13.936C27.6677 16.0894 22.6054 17.8271 16.3343 17.8271C10.0632 17.8649 5.00098 16.0894 5.00098 13.936C5.00098 11.7827 10.0632 10.0449 16.3343 10.0449C22.6054 10.0449 27.6677 11.7827 27.6677 13.936Z" fill="#367E60"/>
<path d="M27.29 13.8602C27.29 15.8246 22.3789 17.4113 16.3345 17.4113C10.29 17.4113 5.37891 15.8246 5.37891 13.8602C5.37891 11.8957 10.29 10.3091 16.3345 10.3091C22.3789 10.3469 27.29 11.9335 27.29 13.8602Z" fill="#9AFECE"/>
<path d="M16.3357 11.5562C10.9335 11.5562 6.43792 12.8028 5.53125 14.465C6.43792 16.1273 10.9335 17.4117 16.3357 17.4117C21.7379 17.4117 26.2335 16.165 27.1402 14.465C26.2335 12.8406 21.7379 11.5562 16.3357 11.5562Z" fill="#FFB323"/>
<path d="M16.3349 20.9254C21.3216 20.9254 25.5149 19.7165 27.0638 18.0165C27.2527 17.1098 27.366 16.2031 27.4793 15.4854C26.4971 17.2987 21.8882 18.6587 16.3349 18.6587C10.7815 18.6587 6.17265 17.2987 5.19043 15.4854C5.30376 16.2031 5.4171 17.1098 5.60599 18.0165C7.15488 19.7165 11.3482 20.9254 16.3349 20.9254Z" fill="#61E4C5"/>
<path d="M22.227 16.1263L22.1515 15.1818L22.4537 15.144C23.9648 15.0307 24.5693 14.464 24.5693 14.0485C24.607 13.5574 24.0404 13.104 23.2093 12.9529C22.9826 12.9151 22.7559 12.8774 22.5293 12.8774C21.7737 12.8774 21.1693 13.104 20.4137 13.3685C19.4315 13.7463 18.3359 14.124 16.7115 14.124C15.767 14.124 14.7093 13.8218 13.6137 13.4818C12.5181 13.1418 11.347 12.8018 10.327 12.8018C9.60926 12.8018 9.00481 12.9529 8.47592 13.2929C8.1737 13.4818 7.72037 13.8218 7.8337 14.124C8.06037 14.6151 9.42037 15.1063 10.5915 15.1063C10.7426 15.1063 10.8559 15.1063 11.007 15.0685L11.2715 15.0307L11.4226 15.9752L11.0826 16.0885C10.9315 16.0885 10.7804 16.1263 10.5915 16.1263C9.34481 16.1263 7.38037 15.6351 6.92703 14.5774C6.77592 14.1996 6.66259 13.4063 7.94703 12.6129C8.62703 12.1974 9.42037 11.9707 10.327 11.9707C11.5359 11.9707 12.8204 12.3485 13.9159 12.6885C14.9359 12.9907 15.9181 13.2929 16.7115 13.2929C18.147 13.2929 19.167 12.9151 20.0737 12.5751C20.8293 12.3107 21.6226 12.0085 22.5293 12.0085C22.8315 12.0085 23.0959 12.0463 23.3982 12.084C24.7204 12.3485 25.5893 13.1796 25.5515 14.1618C25.5137 14.9929 24.6826 15.9751 22.5293 16.1263H22.227Z" fill="white"/>
<path d="M19.2415 16.0128C18.3726 16.0128 17.5038 15.8239 16.6349 15.4083C14.7082 14.5395 13.1593 14.3506 12.1771 14.3506C10.9682 14.3506 10.2882 14.615 10.0238 14.7283L9.79708 14.8417L9.34375 14.0106L9.60819 13.8972C9.94819 13.7461 10.8926 13.3683 12.4793 13.4439C13.9526 13.4817 15.5015 13.8595 17.0504 14.5772C17.806 14.9172 18.5238 15.1061 19.2415 15.1061C20.4882 15.1061 21.5838 14.5395 22.2638 13.5572L22.4149 13.3306L23.246 13.8217L23.0571 14.0861C22.3771 15.0683 21.3949 15.7106 20.2238 15.9372C19.9215 15.975 19.5815 16.0128 19.2415 16.0128Z" fill="white"/>
<path d="M16.7503 16.6175L16.5237 16.5042C15.8815 16.202 15.2392 16.0509 14.5215 16.0509C13.3503 16.0509 12.5192 16.5042 12.5192 16.5042L12.2926 16.6175L11.7637 15.8242L12.0281 15.6731C12.1415 15.5975 13.1237 15.1064 14.4837 15.1064C15.3148 15.1064 16.1459 15.2953 16.9015 15.6731L17.1659 15.7864L16.7503 16.6175ZM12.7081 8.00419L12.2548 7.1353L12.5192 6.98418C13.3881 6.53085 13.8037 4.86863 13.8037 4.83085L13.8792 4.56641L14.8237 4.83085L14.7481 5.0953C14.7103 5.17085 14.2192 7.17307 12.9726 7.85307L12.7081 8.00419ZM16.7881 8.60863L15.9948 8.07974L16.1459 7.85307C16.1459 7.85307 16.7503 6.90863 16.9015 6.03974L16.9392 5.7753L17.9215 5.92641L17.8459 6.15307C17.657 7.28641 16.977 8.34419 16.9392 8.38196L16.7881 8.60863ZM15.277 8.23085L14.4837 7.70196L14.6348 7.4753C14.6348 7.4753 15.2392 6.53085 15.3903 5.66196L15.4281 5.39752L16.4103 5.51085L16.3726 5.7753C16.1837 6.90863 15.5037 7.96641 15.4659 8.00419L15.277 8.23085Z" fill="white"/>
<path d="M27.6686 7.77754L12.3309 4.86865L12.2553 5.28421L27.5175 8.94865L27.6686 7.77754ZM26.7998 11.2153L12.2175 5.69976L12.0664 6.07754L26.422 12.3109L26.7998 11.2153Z" fill="#E6674E"/>
<path d="M13.7661 7.92889C13.4638 7.92889 13.1994 7.77778 12.9727 7.51334C12.4061 6.83334 12.6705 5.51111 13.0105 4.83111C13.3127 4.15111 13.6905 4 13.955 4C14.2194 4 14.4461 4.11333 14.5972 4.30222C14.8238 4.60444 14.7861 4.98222 14.7483 5.09556L13.9172 5.05778C13.9172 5.09556 13.8416 5.24667 13.8416 5.24667C13.5772 5.88889 13.5394 6.68222 13.6905 6.90889C13.7283 6.94667 13.7283 6.94667 13.7661 6.94667C13.7661 6.94667 13.8038 6.98445 13.8416 6.87111L14.7483 7.21111C14.5594 7.62667 14.2572 7.85334 13.8794 7.92889H13.7661Z" fill="white"/>
<path d="M15.3898 8.49602C15.0876 8.49602 14.7854 8.34491 14.5965 8.08046C13.8032 7.02268 14.2565 5.62491 14.7098 4.98268C15.0498 4.52935 15.352 4.41602 15.5409 4.41602C15.6165 4.41602 15.692 4.41602 15.7298 4.45379C15.9943 4.56713 16.4098 4.75602 16.3343 5.62491L15.4654 5.47379C15.2387 5.92713 15.0498 7.06046 15.3898 7.55157L16.2587 7.92935C16.1076 8.26935 15.8432 8.49602 15.5032 8.5338C15.4276 8.49602 15.4276 8.49602 15.3898 8.49602Z" fill="white"/>
<path d="M16.9 12.7264C17.2023 11.9331 16.4467 10.6109 16.1823 9.96864C15.6912 8.75975 15.7667 5.54863 16.6734 4.94419C16.9378 4.7553 17.24 4.71752 17.5045 4.86863C17.7689 4.98197 18.0334 5.4353 17.9578 5.96419L17.0889 5.7753C16.8623 6.4553 16.7112 8.8353 17.1645 9.8553C17.5045 10.5731 18.1467 11.7064 17.7689 12.9153C17.5045 13.6709 16.6734 13.2931 16.9 12.7264Z" fill="white"/>
</svg>
