<svg width="33" height="32" viewBox="0 0 33 32" fill="none" xmlns="http://www.w3.org/2000/svg">
<rect x="0.666992" width="32" height="32" rx="16" fill="#367E60"/>
<path d="M26.3905 17.2207L29.3525 20.1432L16.2011 26.4227C16.2011 26.4227 14.4634 27.2126 13.634 25.9488C10.3956 20.8936 26.3905 17.2207 26.3905 17.2207Z" fill="#367E60"/>
<path d="M15.8863 22.7496C15.8863 22.7496 13.3587 23.6185 13.8326 25.3167C14.3066 27.0544 16.3207 25.9881 16.3207 25.9881L28.8007 20.1825C28.8007 20.1825 28.0898 18.3264 29.3536 17.1021L15.8863 22.7496Z" fill="#E8F0ED"/>
<path d="M17.9783 5.3335L29.9449 16.9841L15.8062 22.5132L6.72266 8.3745L17.9783 5.3335Z" fill="#61E4C5"/>
<path d="M18.3327 7.97998L20.6233 10.4286L12.0532 13.5091L10.0391 10.3891L18.3327 7.97998Z" fill="white"/>
<path d="M28.7589 18.3652L20.4258 21.7617L28.6404 18.0098L28.7589 18.3652ZM28.6404 19.392L19.7544 23.0649L28.4824 18.9971L28.6404 19.392ZM28.7194 19.9449L17.3848 24.8816L28.5614 19.5895L28.7194 19.9449Z" fill="#4D675F"/>
<path d="M13.634 25.9497C12.2517 23.0666 15.8061 22.5532 15.8061 22.5532L6.72261 8.37505C6.72261 8.37505 4.66895 8.33556 4.66895 10.4682C4.66895 11.3371 5.06388 12.0085 5.06388 12.0085L13.634 25.9497Z" fill="#9AFECE"/>
</svg>
