<svg width="33" height="32" viewBox="0 0 33 32" fill="none" xmlns="http://www.w3.org/2000/svg">
<rect x="0.333984" width="32" height="32" rx="16" fill="#367E60"/>
<path d="M11.0023 5.33252C7.55339 5.33252 5.66895 7.57252 5.66895 10.5592V17.137H16.3356V10.5592C16.3356 6.1503 13.4556 6.22141 13.4556 6.22141C13.4556 6.22141 13.2423 5.33252 11.0023 5.33252Z" fill="#1F2621"/>
<path d="M16.3359 16.9949V26.666H27.0026V16.9949C27.0026 14.9327 16.3359 14.9327 16.3359 16.9949Z" fill="#009A75"/>
<path d="M5.66895 16.9949V26.666H16.3356V16.9949C16.3356 14.9327 5.66895 14.9327 5.66895 16.9949Z" fill="#9AFECE"/>
<path d="M7.23339 13.0127C7.23339 13.0127 6.45117 12.7994 6.45117 11.626C6.45117 10.7016 7.05562 10.5238 7.05562 10.5238C9.18895 10.5238 12.6734 7.75049 12.6734 7.75049C12.6734 7.75049 13.9889 10.2038 15.2689 10.5238C15.2689 10.5238 15.8734 10.6305 15.8734 11.626C15.8734 12.7994 15.0556 13.0127 15.0556 13.0127C15.0556 14.7905 12.6378 16.5683 11.1445 16.5683C9.72228 16.5683 7.23339 14.7905 7.23339 13.0127Z" fill="#FFD2A8"/>
<path d="M9.26074 12.6216C9.69275 12.6216 10.043 12.2714 10.043 11.8394C10.043 11.4073 9.69275 11.0571 9.26074 11.0571C8.82873 11.0571 8.47852 11.4073 8.47852 11.8394C8.47852 12.2714 8.82873 12.6216 9.26074 12.6216Z" fill="#1F1F26"/>
<path d="M13.1006 12.6216C13.5326 12.6216 13.8828 12.2714 13.8828 11.8394C13.8828 11.4073 13.5326 11.0571 13.1006 11.0571C12.6686 11.0571 12.3184 11.4073 12.3184 11.8394C12.3184 12.2714 12.6686 12.6216 13.1006 12.6216Z" fill="#1F1F26"/>
<path d="M12.4619 14.2569C11.6441 14.8969 10.7197 14.8969 9.90189 14.2569C9.79523 14.1858 9.72411 14.328 9.79523 14.4347C10.0441 14.8969 10.5419 15.288 11.1819 15.288C11.8219 15.288 12.3197 14.8969 12.5686 14.4347C12.6397 14.328 12.5686 14.1858 12.4619 14.2569Z" fill="#1F1F26"/>
<path d="M16.3008 10.7728L16.8341 11.7684H26.1497L26.5408 10.7373C26.5408 6.96838 25.6519 5.40394 21.5274 5.36838C17.3319 5.29727 16.3008 6.96838 16.3008 10.7728Z" fill="#1F2621"/>
<path d="M26.1841 10.7016C26.1486 10.915 26.113 11.1283 26.0419 11.235C25.9352 11.4483 25.7219 11.555 25.7219 11.555C25.7219 11.555 25.793 11.1283 25.7574 10.5594C25.5086 7.11051 25.3308 8.74607 21.5263 8.74607C17.7219 8.74607 17.5086 7.07495 17.2952 10.5238C17.2597 11.1283 17.3308 11.5194 17.3308 11.5194C17.3308 11.5194 17.1174 11.4127 17.0108 11.1994C16.9397 11.0927 16.9041 10.8794 16.8686 10.6661C16.513 10.5594 16.0508 10.6661 16.0508 11.6972C16.0508 12.3372 16.2997 12.8705 17.0819 12.9416C17.3663 15.1105 20.2463 16.5327 21.5619 16.5327C22.8419 16.5327 25.7574 15.075 26.0419 12.9416C26.8241 12.8705 27.073 12.3372 27.073 11.6972C27.0019 10.7016 26.5397 10.6305 26.1841 10.7016Z" fill="#FFD2A8"/>
<path d="M19.5342 12.6216C19.9662 12.6216 20.3164 12.2714 20.3164 11.8394C20.3164 11.4073 19.9662 11.0571 19.5342 11.0571C19.1022 11.0571 18.752 11.4073 18.752 11.8394C18.752 12.2714 19.1022 12.6216 19.5342 12.6216Z" fill="#1F1F26"/>
<path d="M23.4453 12.6216C23.8773 12.6216 24.2275 12.2714 24.2275 11.8394C24.2275 11.4073 23.8773 11.0571 23.4453 11.0571C23.0133 11.0571 22.6631 11.4073 22.6631 11.8394C22.6631 12.2714 23.0133 12.6216 23.4453 12.6216Z" fill="#1F1F26"/>
<path d="M22.7705 14.2574C21.9527 14.8974 21.0283 14.8974 20.2105 14.2574C20.1038 14.1863 20.0327 14.3285 20.1038 14.4352C20.3527 14.8974 20.8505 15.2885 21.4905 15.2885C22.1305 15.2885 22.6283 14.8974 22.8772 14.4352C22.9483 14.3285 22.8772 14.1863 22.7705 14.2574Z" fill="#1F1F26"/>
<path d="M25.2248 26.6658H16.3359C16.3359 23.6791 25.2248 23.6791 25.2248 26.6658Z" fill="#61E4C5"/>
<path d="M20.7799 17.4209C18.3976 17.4209 16.9043 18.772 16.9043 20.4431V21.5809C16.9043 22.8965 17.9354 22.8965 17.9354 22.8965H23.7665C23.7665 22.8965 24.6554 22.8965 24.6554 21.5809V20.4431C24.6554 18.772 23.091 17.4209 20.7799 17.4209Z" fill="#1F2621"/>
<path d="M17.2602 21.8661L17.4024 20.2661C17.4024 19.235 19.0024 20.0527 20.7802 20.0527C22.558 20.0527 24.158 19.235 24.158 20.2661L24.3002 21.8661C25.0824 21.8661 25.0824 23.1105 24.3002 23.1105C24.3002 24.675 22.2024 25.5994 20.7802 25.5994C19.358 25.5994 17.2602 24.675 17.2602 23.1105C16.5135 23.1105 16.5135 21.8661 17.2602 21.8661Z" fill="#FFD2A8"/>
<path d="M19.0736 22.9675C19.4271 22.9675 19.7136 22.681 19.7136 22.3275C19.7136 21.974 19.4271 21.6875 19.0736 21.6875C18.7201 21.6875 18.4336 21.974 18.4336 22.3275C18.4336 22.681 18.7201 22.9675 19.0736 22.9675Z" fill="#1F1F26"/>
<path d="M22.4877 22.9675C22.8411 22.9675 23.1277 22.681 23.1277 22.3275C23.1277 21.974 22.8411 21.6875 22.4877 21.6875C22.1342 21.6875 21.8477 21.974 21.8477 22.3275C21.8477 22.681 22.1342 22.9675 22.4877 22.9675Z" fill="#1F1F26"/>
<path d="M19.6786 23.9625C20.3897 24.4958 21.2075 24.4958 21.9186 23.9625C21.9897 23.8914 22.0963 23.998 22.0252 24.1047C21.8119 24.4958 21.3497 24.8158 20.8163 24.8158C20.2475 24.8158 19.8208 24.4603 19.6075 24.1047C19.5008 23.998 19.5719 23.8914 19.6786 23.9625Z" fill="#1F1F26"/>
<path d="M15.6239 22.9677H15.9439V20.941C15.9439 18.9854 14.3794 17.4565 11.8194 17.4565C9.3661 17.4565 7.69499 19.021 7.69499 20.941V22.9677H8.12166C7.58832 23.5721 7.16166 24.8877 7.62388 25.7054C7.80166 26.0254 9.72166 27.1988 9.89943 25.1365H13.8461C14.0239 27.1988 15.9439 26.0254 16.1217 25.7054C16.5839 24.8877 16.1572 23.5721 15.6239 22.9677Z" fill="#1F2621"/>
<path d="M11.8196 18.0615C9.61518 18.0615 8.12184 19.1993 8.12184 20.6215V21.0482C8.12184 19.626 9.61518 18.4882 11.8196 18.4882C14.0952 18.4882 15.5174 19.626 15.5174 21.0482V20.6215C15.5174 19.1993 14.1307 18.0615 11.8196 18.0615ZM7.44629 26.666H16.3352C16.3352 23.6793 7.44629 23.6793 7.44629 26.666Z" fill="#FFB323"/>
<path d="M15.3757 23.3943C15.3757 23.3943 16.0157 23.501 16.0157 22.7898C16.0157 22.221 15.3757 22.2565 15.3757 22.2565V21.6165C15.3757 21.6165 10.5757 21.4032 9.47349 19.5898C9.75793 21.4032 8.30016 22.221 8.30016 22.221C8.30016 22.221 7.66016 22.1498 7.66016 22.7543C7.66016 23.4654 8.30016 23.3587 8.30016 23.3587C8.30016 24.4254 10.1846 25.5632 11.9268 25.5632C13.4913 25.5987 15.3757 24.6387 15.3757 23.3943Z" fill="#FFD2A8"/>
<path d="M14.1296 22.3275C14.1296 22.6831 13.8452 22.9675 13.4896 22.9675C13.1341 22.9675 12.8496 22.6831 12.8496 22.3275C12.8496 21.9719 13.1696 21.6875 13.4896 21.6875C13.8452 21.6875 14.1296 21.9719 14.1296 22.3275Z" fill="#1F1F26"/>
<path d="M10.2543 22.9675C10.6077 22.9675 10.8943 22.681 10.8943 22.3275C10.8943 21.974 10.6077 21.6875 10.2543 21.6875C9.9008 21.6875 9.61426 21.974 9.61426 22.3275C9.61426 22.681 9.9008 22.9675 10.2543 22.9675Z" fill="#1F1F26"/>
<path d="M12.9922 23.9625C12.2811 24.4958 11.4633 24.4958 10.7522 23.9625C10.6811 23.8914 10.5744 23.998 10.6455 24.1047C10.8589 24.4958 11.3211 24.8158 11.8544 24.8158C12.4233 24.8158 12.85 24.4603 13.0633 24.1047C13.17 23.998 13.0633 23.8914 12.9922 23.9625Z" fill="#1F1F26"/>
</svg>
