<svg width="32" height="32" viewBox="0 0 32 32" fill="none" xmlns="http://www.w3.org/2000/svg">
<rect width="32" height="32" rx="16" fill="#367E60"/>
<path d="M8.9471 24.982C9.51368 24.4154 9.28705 23.6977 8.90933 23.32C8.53161 22.9423 7.81394 22.7157 7.24736 23.2822C6.68078 23.8488 6.45415 24.982 6.86964 25.3597C7.24736 25.7752 8.38052 25.5486 8.9471 24.982ZM7.62508 19.6184C8.19166 19.0518 7.96503 18.3341 7.58731 17.9564C7.20959 17.5787 6.49192 17.352 5.92534 17.9186C5.35876 18.4852 5.13213 19.6184 5.54762 20.0339C5.92534 20.4116 7.0585 20.1849 7.62508 19.6184Z" fill="#FAFCFB"/>
<path d="M23.8672 24.9823C25.6047 24.9823 27.9844 24.5669 27.9844 22.7538C27.9844 20.7519 26.0202 18.8633 23.8672 18.8633V24.9823Z" fill="#61E4C5"/>
<path d="M19.7125 21.3178C19.7125 24.7173 22.0922 25.0195 23.8297 25.0195C25.5672 25.0195 27.3047 24.2262 27.3047 22.7909C27.3047 21.0912 25.5672 18.9004 23.8297 18.9004C22.1299 18.9004 19.7125 19.6181 19.7125 21.3178Z" fill="#9AFECE"/>
<path d="M20.7329 24.9815C26.7387 24.9815 26.7765 17.7671 20.6196 17.7671L20.7329 24.9815Z" fill="#61E4C5"/>
<path d="M16.992 20.6388C16.992 24.6426 19.1072 25.0203 20.7692 25.0203C26.2083 25.0203 26.0572 17.8059 20.6558 17.8059C18.9561 17.7681 16.992 18.6368 16.992 20.6388Z" fill="#9AFECE"/>
<path d="M17.1059 24.9816C23.5649 24.9816 23.3005 17.4272 17.1059 17.4272V24.9816Z" fill="#61E4C5"/>
<path d="M12.7256 20.4112C12.7256 24.6039 15.1808 24.9816 17.1072 24.9816C22.433 24.9816 22.433 17.4272 17.1072 17.4272C15.2186 17.4272 12.7256 18.3338 12.7256 20.4112Z" fill="#9AFECE"/>
<path d="M11.8559 24.9815C19.9391 24.9815 19.1837 16.2939 12.4225 16.2939L11.8559 24.9815Z" fill="#61E4C5"/>
<path d="M6.94647 20.2983C6.94647 24.491 9.62829 25.0198 11.8568 25.0198C18.6558 25.0198 18.6558 16.1812 11.8568 16.1812C9.62829 16.1434 6.94647 18.1831 6.94647 20.2983Z" fill="#9AFECE"/>
<path d="M7.05902 19.5805C7.05902 19.5805 8.41881 21.2425 10.4963 21.5069C12.6115 21.7713 18.0507 20.2982 14.6512 15.5767L7.05902 19.5805Z" fill="#61E4C5"/>
<path d="M6.19023 17.6541C6.19023 19.8071 8.68318 20.7514 10.7606 20.7514C12.8381 20.7514 15.3311 19.8071 15.3311 17.6541C15.3311 15.5011 12.8381 12.9326 10.7606 12.9326C8.64541 12.9326 6.19023 15.5011 6.19023 17.6541Z" fill="#9AFECE"/>
<path d="M16.691 23.9246C15.8978 23.1313 15.1046 23.2447 14.6891 23.6601C14.3114 24.0379 14.1603 24.8689 14.9535 25.6621C15.7467 26.4553 17.1443 26.9085 17.5598 26.5308C17.9753 26.1153 17.4842 24.7178 16.691 23.9246ZM15.8978 15.9169C15.1046 16.7101 15.2179 17.5033 15.6334 17.9188C16.0111 18.2965 16.8421 18.4476 17.6353 17.6544C18.4285 16.8612 18.8818 15.4636 18.5041 15.0859C18.0886 14.6704 16.691 15.1237 15.8978 15.9169ZM20.8837 24.1134C20.2038 23.4335 19.5239 23.5468 19.2218 23.8868C18.8818 24.2267 18.7685 24.9066 19.4484 25.5487C20.1283 26.2286 21.2992 26.6064 21.6392 26.2664C21.9413 25.9642 21.5636 24.7555 20.8837 24.1134ZM24.2077 24.2267C23.6411 23.6601 23.0745 23.7357 22.7723 24.0379C22.5079 24.3023 22.3946 24.9066 22.9612 25.4732C23.5278 26.0398 24.5476 26.3797 24.812 26.0776C25.1142 25.8132 24.7742 24.7933 24.2077 24.2267Z" fill="#FAFCFB"/>
<path d="M18.0123 18.3342L18.39 18.7119L18.0123 19.0896L17.6724 18.7119L18.0123 18.3342ZM19.1455 20.6382L19.4854 21.016L19.1455 21.3937L18.7678 21.016L19.1455 20.6382ZM22.8471 18.7119L23.2249 19.0896L22.8471 19.4295L22.4694 19.0896L22.8471 18.7119ZM25.68 20.2983L26.02 20.6382L25.68 21.016L25.3023 20.6382L25.68 20.2983ZM26.2844 21.1293L26.6621 21.507L26.2844 21.8847L25.9067 21.507L26.2844 21.1293ZM15.6705 20.0339L16.0482 20.4116L15.6705 20.7893L15.2927 20.4116L15.6705 20.0339ZM14.7262 21.2048L15.1039 21.5825L14.7262 21.9225L14.3484 21.5825L14.7262 21.2048ZM7.96497 21.016L8.34269 21.3937L7.96497 21.7336L7.62502 21.3937L7.96497 21.016ZM8.22937 17.9942L8.60709 18.3342L8.22937 18.7119L7.88942 18.3342L8.22937 17.9942ZM13.5175 16.9366L13.8952 17.2765L13.5175 17.6543L13.1775 17.2765L13.5175 16.9366ZM19.4854 18.523L20.2409 19.2407L19.4854 19.9961L18.7678 19.2407L19.4854 18.523ZM7.5117 16.1812L8.22937 16.9366L7.5117 17.6543L6.79404 16.9366L7.5117 16.1812ZM23.2249 19.7317L23.9425 20.4872L23.2249 21.2048L22.4694 20.4872L23.2249 19.7317Z" fill="#61E4C5"/>
<path d="M13.4425 7.11642L13.7824 7.07865C13.7447 6.36098 14.2735 5.45445 15.2178 5.19005L15.1422 4.8501C14.1224 5.15227 13.3669 6.13435 13.4425 7.11642Z" fill="#FAFCFB"/>
<path d="M14.5369 4.50974C14.2347 4.84969 14.2725 5.3785 14.6125 5.68068C14.9524 5.98285 15.4812 5.94508 15.7834 5.60513C16.0856 5.26518 16.0478 4.73638 15.7078 4.4342C15.3679 4.09425 14.8391 4.13202 14.5369 4.50974ZM10.1554 6.92715L10.1931 6.5872C9.47546 6.51166 8.72002 5.75622 8.64448 4.81192L8.30453 4.84969C8.38007 5.86954 9.21106 6.81384 10.1554 6.92715Z" fill="#FAFCFB"/>
<path d="M7.81317 5.34043C8.07757 5.71815 8.60638 5.75592 8.9841 5.49152C9.36182 5.18934 9.39959 4.69831 9.13519 4.32059C8.87078 3.94287 8.34198 3.90509 7.96426 4.1695C7.62431 4.4339 7.54876 4.96271 7.81317 5.34043Z" fill="#FAFCFB"/>
<path d="M7.70198 14.4443C8.60851 17.2772 13.8966 17.4283 14.6143 15.5775L7.70198 14.4443Z" fill="#61E4C5"/>
<path d="M6.37884 11.6858C6.18998 15.6141 14.1976 18.2959 16.5395 13.65C18.3148 10.0994 15.5197 6.39773 12.5734 6.05778C7.73863 5.4912 6.45438 9.79721 6.37884 11.6858Z" fill="#9AFECE"/>
<path d="M9.36217 10.1385C9.36217 10.7807 9.70211 11.2717 10.1176 11.2717C10.5331 11.2717 10.873 10.7807 10.873 10.1385C10.873 9.49641 10.5331 9.00537 10.1176 9.00537C9.70211 9.00537 9.36217 9.53418 9.36217 10.1385Z" fill="#1F2621"/>
<path d="M14.6127 11.2717C14.1955 11.2717 13.8573 10.7644 13.8573 10.1385C13.8573 9.5127 14.1955 9.00537 14.6127 9.00537C15.0299 9.00537 15.3682 9.5127 15.3682 10.1385C15.3682 10.7644 15.0299 11.2717 14.6127 11.2717Z" fill="#1F2621"/>
<path d="M12.3842 14.2934C13.2908 14.2934 14.084 13.9534 14.084 13.6135C14.084 13.5757 14.084 13.5379 14.0462 13.5002C14.0084 13.4624 13.9707 13.4624 13.8951 13.4624C13.8196 13.4624 13.7818 13.5002 13.6685 13.5379C13.4419 13.6135 13.0264 13.8024 12.3465 13.8024C11.6666 13.8024 11.2511 13.6135 11.0622 13.5379C10.9489 13.5002 10.9111 13.4624 10.8356 13.4624C10.76 13.4624 10.6845 13.5002 10.6845 13.6135C10.6845 13.9534 11.4777 14.2934 12.3842 14.2934Z" fill="#1F2621"/>
<g opacity="0.7">
<path d="M8.45438 13.1596C7.78683 13.1596 7.24568 12.7368 7.24568 12.2153C7.24568 11.6938 7.78683 11.271 8.45438 11.271C9.12193 11.271 9.66309 11.6938 9.66309 12.2153C9.66309 12.7368 9.12193 13.1596 8.45438 13.1596Z" fill="#FFB323"/>
<path d="M15.7455 12.8574C15.2031 12.8574 14.7634 12.553 14.7634 12.1775C14.7634 11.802 15.2031 11.4976 15.7455 11.4976C16.2878 11.4976 16.7275 11.802 16.7275 12.1775C16.7275 12.553 16.2878 12.8574 15.7455 12.8574Z" fill="#FFB323"/>
</g>
</svg>
