<svg width="97" height="96" viewBox="0 0 97 96" fill="none" xmlns="http://www.w3.org/2000/svg">
<g clip-path="url(#clip0_484_23775)">
<path d="M39.9997 43.9999C45.0706 45.7696 48.9991 43.9999 52.9997 42.4999C50.9136 50.1591 47.6157 54.1548 43.4997 58.9999C43.6886 52.4744 43.4421 50.3329 39.9997 43.9999Z" fill="url(#paint0_linear_484_23775)"/>
<path d="M32.4997 49.4999C30.6538 56.7271 28.256 60.6718 20.4997 64.4999C27.8342 67.4159 31.4098 67.2173 36.9983 64.4999C36.3216 58.951 35.4244 55.6899 32.4997 49.4999Z" fill="url(#paint1_linear_484_23775)"/>
<path d="M42.4997 32.9998C49.3466 31.265 50.5936 27.8021 52.9997 18.9998C54.866 24.3416 56.3347 28.7811 54.4997 35.9998C50.1309 37.1054 44.9997 34.9998 42.4997 32.9998Z" fill="url(#paint2_linear_484_23775)"/>
<path d="M40.9997 11.4998C25.5038 12.0274 6.53215 39.9814 11.9997 56.9999C20.0781 52.8511 23.0738 50.6518 24.4997 46.9999C13.9997 41.4999 27.4983 18.9998 36.9983 26.9998C40.5887 20.5749 42.4319 17.0037 40.9997 11.4998Z" fill="url(#paint3_linear_484_23775)"/>
<path fill-rule="evenodd" clip-rule="evenodd" d="M9.49869 62.9996C24.9986 77.4995 43.9997 81.4999 62.4997 68.4999L48.9991 81.4999C49.987 85.1536 58.4869 88.6907 61.4997 87.9998L66.9991 71.4999C66.9991 71.4999 67.4986 80 75.9991 81.4999C84.4996 82.9998 98.4996 64.9999 94.9991 56.9999C92.798 51.9695 84.9996 49.9999 78.4996 53.4999L74.4996 50.4999C74.4996 50.4999 72.9982 17.5 48.9991 6.99991C25.0001 -3.50015 -7.00027 42.5 9.49869 62.9996ZM27.4983 45.9999C18.4983 41.9999 27.4983 24.9998 36.9983 29.9999C42.3579 28.254 44.0137 21.0654 46.9997 9.49985C31.9997 -0.000151634 -3.50035 39.4999 11.9997 61.4999C18.0628 56.2745 26.6947 54.1329 27.4983 45.9999ZM38.4997 31.4998C45.1313 27.9309 46.9997 22.9998 50.4997 10.9998C69.9997 23.9998 48.4997 86.9999 15.4997 64.4999C19.3684 60.5376 28.7223 55.5843 29.9997 46.9999C34.9997 48.9999 44.9349 36.6283 38.4997 31.4998ZM64.4997 68.4999C69.6051 66.2367 73.0391 60.0082 74.4996 52.4999L77.4996 54.9999C77.987 61.3658 73.5648 67.4129 67.4997 69.9998L64.4997 68.4999ZM54.9302 52.816C61.0732 39.8151 62.5471 23.3589 55.4997 12.9998C64.7229 20.3242 63.2023 38.7302 54.9302 52.816C48.0272 67.4258 35.228 77.6723 21.9997 69.9998C36.1809 73.4984 47.9555 64.6929 54.9302 52.816Z" fill="url(#paint4_linear_484_23775)"/>
<path d="M54.9302 52.816C61.0732 39.8151 62.5471 23.3589 55.4997 12.9998C64.7229 20.3242 63.2023 38.7302 54.9302 52.816ZM54.9302 52.816C48.0272 67.4258 35.228 77.6723 21.9997 69.9998C36.1809 73.4984 47.9555 64.6929 54.9302 52.816ZM9.49869 62.9996C24.9986 77.4995 43.9997 81.4999 62.4997 68.4999L48.9991 81.4999C49.987 85.1536 58.4869 88.6907 61.4997 87.9998L66.9991 71.4999C66.9991 71.4999 67.4986 80 75.9991 81.4999C84.4996 82.9998 98.4996 64.9999 94.9991 56.9999C92.798 51.9695 84.9996 49.9999 78.4996 53.4999L74.4996 50.4999C74.4996 50.4999 72.9982 17.5 48.9991 6.99991C25.0001 -3.50015 -7.00027 42.5 9.49869 62.9996ZM36.9983 29.9999C27.4983 24.9998 18.4983 41.9999 27.4983 45.9999C26.6947 54.1329 18.0628 56.2745 11.9997 61.4999C-3.50035 39.4999 31.9997 -0.000151634 46.9997 9.49985C44.0137 21.0654 42.3579 28.254 36.9983 29.9999ZM50.4997 10.9998C46.9997 22.9998 45.1313 27.9309 38.4997 31.4998C44.9349 36.6283 34.9997 48.9999 29.9997 46.9999C28.7223 55.5843 19.3684 60.5376 15.4997 64.4999C48.4997 86.9999 69.9997 23.9998 50.4997 10.9998ZM74.4996 52.4999C73.0391 60.0082 69.6051 66.2367 64.4997 68.4999L67.4997 69.9998C73.5648 67.4129 77.987 61.3658 77.4996 54.9999L74.4996 52.4999ZM42.4997 32.9998C49.3466 31.265 50.5936 27.8021 52.9997 18.9998C54.866 24.3416 56.3347 28.7811 54.4997 35.9998C50.1309 37.1054 44.9997 34.9998 42.4997 32.9998ZM32.4997 49.4999C30.6538 56.7271 28.256 60.6718 20.4997 64.4999C27.8342 67.4159 31.4098 67.2173 36.9983 64.4999C36.3216 58.951 35.4244 55.6899 32.4997 49.4999ZM39.9997 43.9999C45.0706 45.7696 48.9991 43.9999 52.9997 42.4999C50.9136 50.1591 47.6157 54.1548 43.4997 58.9999C43.6886 52.4744 43.4421 50.3329 39.9997 43.9999ZM40.9997 11.4998C25.5038 12.0274 6.53215 39.9814 11.9997 56.9999C20.0781 52.8511 23.0738 50.6518 24.4997 46.9999C13.9997 41.4999 27.4983 18.9998 36.9983 26.9998C40.5887 20.5749 42.4319 17.0037 40.9997 11.4998Z" stroke="url(#paint5_linear_484_23775)"/>
</g>
<defs>
<linearGradient id="paint0_linear_484_23775" x1="18" y1="14" x2="81.5" y2="88" gradientUnits="userSpaceOnUse">
<stop stop-color="#1BD59D"/>
<stop offset="1" stop-color="#06ABA1"/>
</linearGradient>
<linearGradient id="paint1_linear_484_23775" x1="18" y1="14" x2="81.5" y2="88" gradientUnits="userSpaceOnUse">
<stop stop-color="#1BD59D"/>
<stop offset="1" stop-color="#06ABA1"/>
</linearGradient>
<linearGradient id="paint2_linear_484_23775" x1="18" y1="14" x2="81.5" y2="88" gradientUnits="userSpaceOnUse">
<stop stop-color="#1BD59D"/>
<stop offset="1" stop-color="#06ABA1"/>
</linearGradient>
<linearGradient id="paint3_linear_484_23775" x1="18" y1="14" x2="81.5" y2="88" gradientUnits="userSpaceOnUse">
<stop stop-color="#1BD59D"/>
<stop offset="1" stop-color="#06ABA1"/>
</linearGradient>
<linearGradient id="paint4_linear_484_23775" x1="18" y1="14" x2="81.5" y2="88" gradientUnits="userSpaceOnUse">
<stop stop-color="#1BD59D"/>
<stop offset="1" stop-color="#06ABA1"/>
</linearGradient>
<linearGradient id="paint5_linear_484_23775" x1="19.5" y1="12.5" x2="89.5" y2="82.5" gradientUnits="userSpaceOnUse">
<stop stop-color="#1BD49D"/>
<stop offset="1" stop-color="#06ABA1"/>
</linearGradient>
<clipPath id="clip0_484_23775">
<rect width="96" height="96" fill="white" transform="translate(0.5)"/>
</clipPath>
</defs>
</svg>
