<svg width="96" height="96" viewBox="0 0 96 96" fill="none" xmlns="http://www.w3.org/2000/svg">
<path d="M38.9999 43.9997C44.0709 45.7694 47.9994 43.9997 51.9999 42.4997C49.9139 50.1589 46.6159 54.1546 42.4999 58.9997C42.6888 52.4743 42.4424 50.3328 38.9999 43.9997Z" fill="url(#paint0_linear_465_34446)"/>
<path d="M31.4999 49.4997C29.6541 56.727 27.2563 60.6717 19.4999 64.4997C26.8344 67.4158 30.4101 67.2171 35.9985 64.4997C35.3219 58.9509 34.4246 55.6898 31.4999 49.4997Z" fill="url(#paint1_linear_465_34446)"/>
<path d="M41.4999 32.9997C48.3469 31.2649 49.5939 27.802 51.9999 18.9997C53.8663 24.3415 55.3349 28.781 53.4999 35.9997C49.1312 37.1053 43.9999 34.9997 41.4999 32.9997Z" fill="url(#paint2_linear_465_34446)"/>
<path d="M39.9999 11.4997C24.504 12.0273 5.53241 39.9812 10.9999 56.9998C19.0783 52.851 22.0741 50.6517 23.4999 46.9997C12.9999 41.4997 26.4985 18.9997 35.9985 26.9997C39.589 20.5747 41.4321 17.0035 39.9999 11.4997Z" fill="url(#paint3_linear_465_34446)"/>
<path fill-rule="evenodd" clip-rule="evenodd" d="M8.49896 62.9995C23.9988 77.4994 42.9999 81.4998 61.4999 68.4997L47.9994 81.4998C48.9872 85.1534 57.4871 88.6906 60.4999 87.9997L65.9994 71.4998C65.9994 71.4998 66.4989 79.9999 74.9994 81.4998C83.4999 82.9997 97.4999 64.9997 93.9994 56.9998C91.7983 51.9694 83.9999 49.9997 77.4999 53.4997L73.4999 50.4997C73.4999 50.4997 71.9985 17.4998 47.9994 6.99979C24.0003 -3.50027 -7.5 44 8.49896 62.9995ZM26.4985 45.9997C17.4985 41.9997 26.4985 24.9997 35.9985 29.9998C41.3582 28.2538 43.0139 21.0653 45.9999 9.49973C30.9999 -0.000271797 -4.50008 39.4997 10.9999 61.4997C17.063 56.2744 25.6949 54.1328 26.4985 45.9997ZM37.4999 31.4997C44.1316 27.9308 45.9999 22.9997 49.4999 10.9997C68.9999 23.9997 47.4999 86.9997 14.4999 64.4997C18.3687 60.5375 27.7226 55.5842 28.9999 46.9997C33.9999 48.9997 43.9352 36.6282 37.4999 31.4997ZM63.4999 68.4997C68.6053 66.2365 72.0394 60.0081 73.4999 52.4997L76.4999 54.9997C76.9873 61.3656 72.5651 67.4128 66.4999 69.9997L63.4999 68.4997ZM53.9305 52.8159C60.0734 39.815 61.5474 23.3588 54.4999 12.9997C63.7231 20.324 62.2025 38.73 53.9305 52.8159C47.0274 67.4257 34.2283 77.6722 20.9999 69.9997C35.1811 73.4983 46.9558 64.6928 53.9305 52.8159Z" fill="url(#paint4_linear_465_34446)"/>
<path d="M53.9305 52.8159C60.0734 39.815 61.5474 23.3588 54.4999 12.9997C63.7231 20.324 62.2025 38.73 53.9305 52.8159ZM53.9305 52.8159C47.0274 67.4257 34.2283 77.6722 20.9999 69.9997C35.1811 73.4983 46.9558 64.6928 53.9305 52.8159ZM8.49896 62.9995C23.9988 77.4994 42.9999 81.4998 61.4999 68.4997L47.9994 81.4998C48.9872 85.1534 57.4871 88.6906 60.4999 87.9997L65.9994 71.4998C65.9994 71.4998 66.4989 79.9999 74.9994 81.4998C83.4999 82.9997 97.4999 64.9997 93.9994 56.9998C91.7983 51.9694 83.9999 49.9997 77.4999 53.4997L73.4999 50.4997C73.4999 50.4997 71.9985 17.4998 47.9994 6.99979C24.0003 -3.50027 -7.5 44 8.49896 62.9995ZM35.9985 29.9998C26.4985 24.9997 17.4985 41.9997 26.4985 45.9997C25.6949 54.1328 17.063 56.2744 10.9999 61.4997C-4.50008 39.4997 30.9999 -0.000271797 45.9999 9.49973C43.0139 21.0653 41.3582 28.2538 35.9985 29.9998ZM49.4999 10.9997C45.9999 22.9997 44.1316 27.9308 37.4999 31.4997C43.9352 36.6282 33.9999 48.9997 28.9999 46.9997C27.7226 55.5842 18.3687 60.5375 14.4999 64.4997C47.4999 86.9997 68.9999 23.9997 49.4999 10.9997ZM73.4999 52.4997C72.0394 60.0081 68.6053 66.2365 63.4999 68.4997L66.4999 69.9997C72.5651 67.4128 76.9873 61.3656 76.4999 54.9997L73.4999 52.4997ZM41.4999 32.9997C48.3469 31.2649 49.5939 27.802 51.9999 18.9997C53.8663 24.3415 55.3349 28.781 53.4999 35.9997C49.1312 37.1053 43.9999 34.9997 41.4999 32.9997ZM31.4999 49.4997C29.6541 56.727 27.2563 60.6717 19.4999 64.4997C26.8344 67.4158 30.4101 67.2171 35.9985 64.4997C35.3219 58.9509 34.4246 55.6898 31.4999 49.4997ZM38.9999 43.9997C44.0709 45.7694 47.9994 43.9997 51.9999 42.4997C49.9139 50.1589 46.6159 54.1546 42.4999 58.9997C42.6888 52.4743 42.4424 50.3328 38.9999 43.9997ZM39.9999 11.4997C24.504 12.0273 5.53241 39.9812 10.9999 56.9998C19.0783 52.851 22.0741 50.6517 23.4999 46.9997C12.9999 41.4997 26.4985 18.9997 35.9985 26.9997C39.589 20.5747 41.4321 17.0035 39.9999 11.4997Z" stroke="url(#paint5_linear_465_34446)"/>
<defs>
<linearGradient id="paint0_linear_465_34446" x1="17" y1="14" x2="80.5" y2="88" gradientUnits="userSpaceOnUse">
<stop stop-color="#1FFFBC"/>
<stop offset="1" stop-color="#1CD3C8"/>
</linearGradient>
<linearGradient id="paint1_linear_465_34446" x1="17" y1="14" x2="80.5" y2="88" gradientUnits="userSpaceOnUse">
<stop stop-color="#1FFFBC"/>
<stop offset="1" stop-color="#1CD3C8"/>
</linearGradient>
<linearGradient id="paint2_linear_465_34446" x1="17" y1="14" x2="80.5" y2="88" gradientUnits="userSpaceOnUse">
<stop stop-color="#1FFFBC"/>
<stop offset="1" stop-color="#1CD3C8"/>
</linearGradient>
<linearGradient id="paint3_linear_465_34446" x1="17" y1="14" x2="80.5" y2="88" gradientUnits="userSpaceOnUse">
<stop stop-color="#1FFFBC"/>
<stop offset="1" stop-color="#1CD3C8"/>
</linearGradient>
<linearGradient id="paint4_linear_465_34446" x1="17" y1="14" x2="80.5" y2="88" gradientUnits="userSpaceOnUse">
<stop stop-color="#1FFFBC"/>
<stop offset="1" stop-color="#1CD3C8"/>
</linearGradient>
<linearGradient id="paint5_linear_465_34446" x1="18.5" y1="12.5" x2="88.5" y2="82.5" gradientUnits="userSpaceOnUse">
<stop stop-color="#1FFFC9"/>
<stop offset="1" stop-color="#1CD3C8"/>
</linearGradient>
</defs>
</svg>
