<svg width="33" height="32" viewBox="0 0 33 32" fill="none" xmlns="http://www.w3.org/2000/svg">
<rect x="0.666992" width="32" height="32" rx="16" fill="#367E60"/>
<path d="M26.0159 23.1904C26.0159 24.3915 23.0132 24.3248 23.0132 24.3248L14.6389 22.2229C14.0384 22.0894 13.5713 21.4555 13.5713 20.7882V13.6484L26.0159 14.3491V23.1904Z" fill="#2C2D2D"/>
<path d="M25.4155 9.11067L24.9484 9.04395L22.6129 10.1783L22.2793 24.8916C24.2144 23.2568 26.016 23.2234 26.016 23.2234V10.4119C26.016 9.87803 25.7825 9.41094 25.4155 9.11067Z" fill="#61E4C5"/>
<path d="M22.7477 23.5571C22.7477 24.7582 21.8803 25.5255 20.846 25.292L7.76748 22.0891C7.00012 21.8889 6.36621 20.9214 6.36621 19.9205V9.14404L22.7477 10.2117V23.5571Z" fill="#9AFECE"/>
<path d="M22.979 15.5168C22.979 16.7179 21.9781 17.6187 20.9438 17.4185L7.83193 15.2499C7.06457 15.1164 6.43066 14.1822 6.43066 13.1813L6.86439 8.77734L23.0457 10.0785L22.979 15.5168Z" fill="#61E4C5"/>
<path d="M6.86493 8.47656C5.63048 9.31065 5.63048 14.4486 7.43211 14.4486L20.544 16.4838C21.5783 16.6506 22.4457 15.7832 22.4457 14.5821C22.4457 14.5821 22.0453 10.6786 22.7793 10.1781L23.3799 9.91119L6.86493 8.47656Z" fill="#9AFECE"/>
<path d="M15.6734 13.514L12.1368 13.0469L11.5029 15.5158L12.1368 17.3508L15.6734 17.9847V13.514Z" fill="#FFB323"/>
<path d="M12.1368 13.0469L11.5029 15.5158L15.0395 16.0496L15.6734 13.514L12.1368 13.0469Z" fill="#FFB323"/>
<path d="M12.1368 17.3521L15.6734 17.986L15.0395 16.0509L11.5029 15.5171L12.1368 17.3521Z" fill="#EBFFFA"/>
<path d="M24.2475 8.71021L12.27 7.64258L7.73253 8.17639L7.53234 8.20976C7.2988 8.24312 7.06526 8.34321 6.89844 8.47667L22.8128 10.2116L24.481 9.47757C25.8489 8.8103 26.0157 10.0114 26.0157 10.0114C25.8156 8.94376 24.848 8.77694 24.2475 8.71021Z" fill="#E8F0ED"/>
<path d="M11.5688 8.04248C11.5688 6.60785 12.7031 6.54112 12.9701 6.44103C13.2036 6.3743 13.3704 6.14076 13.3037 5.94058C13.237 5.74039 13.0034 5.70703 12.7699 5.70703C12.0025 5.70703 10.668 6.04067 10.668 8.04248C10.7013 8.27602 11.5688 8.27602 11.5688 8.04248Z" fill="#FFB323"/>
<path d="M11.4038 7.9426C11.3704 7.74242 11.3704 7.54224 11.4371 7.34205C11.4705 7.14187 11.5706 6.94169 11.704 6.80824C11.8375 6.64142 12.0377 6.54133 12.2045 6.4746C12.4047 6.40788 12.6048 6.37451 12.805 6.37451C12.6048 6.44124 12.438 6.50797 12.2712 6.57469C12.1044 6.67478 11.9376 6.77487 11.8375 6.90833C11.5706 7.17524 11.4705 7.54224 11.4038 7.9426Z" fill="#FFB323"/>
<path d="M19.9105 6.94222C19.8771 7.5094 19.3767 7.94313 18.8095 7.8764L12.6373 7.37595C12.0701 7.34258 11.6363 6.84213 11.7031 6.27495C11.7364 5.70777 12.2369 5.27404 12.8041 5.34077L18.943 5.84122C19.5435 5.87459 19.9772 6.37504 19.9105 6.94222Z" fill="#9AFECE"/>
<path d="M19.9104 6.94187C19.877 7.30887 19.41 7.54242 18.8428 7.47569L12.6705 6.97524C12.1033 6.94187 11.6696 6.60824 11.703 6.24124C11.7363 5.87424 12.2034 5.6407 12.7706 5.67406L18.9095 6.17451C19.51 6.2746 19.9438 6.57488 19.9104 6.94187Z" fill="#61E4C5"/>
<path d="M20.0094 9.0102C20.0094 8.14275 19.3755 7.60893 19.0085 7.44211C18.4413 7.20857 18.9084 6.20766 19.4422 6.47457C20.1095 6.77484 21.0103 7.70902 21.0103 9.0102C21.0437 9.31047 20.0094 9.31047 20.0094 9.0102Z" fill="#FFB323"/>
<path d="M20.1444 9.01094C20.0777 8.61057 19.9776 8.24357 19.7441 7.9433C19.5439 7.64303 19.277 7.34276 18.9434 7.14258C19.1435 7.17594 19.3104 7.27603 19.4772 7.40949C19.644 7.54294 19.7774 7.67639 19.8775 7.84321C20.1111 8.21021 20.2112 8.61057 20.1444 9.01094Z" fill="#FFB323"/>
</svg>
