<svg width="32" height="32" viewBox="0 0 32 32" fill="none" xmlns="http://www.w3.org/2000/svg">
<rect width="32" height="32" rx="16" fill="#367E60"/>
<path d="M19.6754 26.7381C19.6041 26.7381 19.497 26.7024 19.4257 26.6667C19.283 26.5597 19.2116 26.417 19.2473 26.2743C19.2473 26.2386 20.1392 22.4214 14.8593 18.2475C14.6809 18.1048 14.6809 17.855 14.8236 17.7123C14.9663 17.534 15.2517 17.534 15.3944 17.6767C19.6041 21.0301 20.1749 24.1338 20.1392 25.6321C23.5283 23.456 25.419 21.2085 25.8115 18.9253C26.1325 16.8205 24.9909 15.5362 24.9553 15.4648C24.8126 15.2865 24.8482 15.0724 24.9909 14.9297C25.1693 14.787 25.419 14.8227 25.5617 14.9654C25.6331 15.0367 26.9887 16.5707 26.5963 18.9966C26.1682 21.6366 23.9207 24.2408 19.8181 26.7024C19.8538 26.7024 19.7468 26.7381 19.6754 26.7381Z" fill="#EBFFFA"/>
<path d="M15.9657 26.7376C15.8587 26.7376 15.7873 26.7019 15.6803 26.6306C15.5376 26.5236 15.5019 26.3452 15.5733 26.1668C15.6446 26.0241 17.143 22.8491 13.1117 18.6038C12.969 18.4254 12.969 18.2114 13.1474 18.0687C13.3258 17.926 13.5755 17.926 13.7182 18.1043C16.7149 21.2794 16.8933 23.955 16.6435 25.382C23.4574 20.5302 22.8153 16.4633 22.8153 16.4276C22.7796 16.2492 22.8866 16.1065 23.0293 15.9995C23.2077 15.9282 23.3861 15.9638 23.5288 16.0709C28.0951 20.7086 24.9557 23.5269 24.9557 23.5626C24.7774 23.7053 24.5276 23.7053 24.3493 23.5626C24.2066 23.4199 24.2066 23.1701 24.3493 23.0274C24.4563 22.9204 26.5611 20.9583 23.6001 17.4265C23.3861 19.1746 22.1731 22.742 16.1441 26.6663C16.1084 26.7019 16.0371 26.7376 15.9657 26.7376Z" fill="#EBFFFA"/>
<path d="M22.9215 26.7377H22.8144C22.6004 26.6663 22.4577 26.4523 22.529 26.2739C22.5647 26.1312 23.5636 22.6351 18.8902 18.6038C18.5335 19.8524 17.3919 22.5637 14.0741 25.2036C13.8958 25.3463 13.646 25.3107 13.5033 25.168C13.3606 24.9896 13.3606 24.7755 13.539 24.6328C17.6773 21.3508 18.2481 17.8546 18.2481 17.819C18.2837 17.6763 18.3551 17.5692 18.4978 17.4979C18.6405 17.4622 18.7832 17.4622 18.9259 17.5692C24.6338 22.0999 23.4209 26.2739 23.3496 26.4523C23.2782 26.6306 23.0998 26.7377 22.9215 26.7377Z" fill="#EBFFFA"/>
<path d="M15.4998 19.3174C10.9691 19.3174 11.5399 17.1056 12.1464 16.2851C13.8231 14.0376 20.1732 11.7544 23.5266 11.7544C27.3795 11.7544 26.773 13.8949 25.9525 14.9651C24.1331 17.4267 18.8532 19.3174 15.4998 19.3174ZM23.5266 12.8603C20.7797 12.8603 15.7139 14.7154 14.0371 16.3208C13.7161 16.6418 13.1096 17.498 15.5355 17.498C18.5322 17.498 23.0985 15.6429 24.4898 14.0019C24.9536 13.3954 25.2033 12.8603 23.5266 12.8603Z" fill="#61E4C5"/>
<path d="M12.468 19.6029C16.4085 19.6029 19.6029 16.4085 19.6029 12.468C19.6029 8.52743 16.4085 5.33301 12.468 5.33301C8.52743 5.33301 5.33301 8.52743 5.33301 12.468C5.33301 16.4085 8.52743 19.6029 12.468 19.6029Z" fill="#FFB323"/>
<path d="M7.40214 7.47273C7.54484 8.0792 7.79457 8.61432 8.07996 9.14945C8.36536 9.68457 8.68643 10.2197 9.00751 10.7191C9.68533 11.718 10.3988 12.7169 11.1837 13.6445C11.9685 14.572 12.789 15.4639 13.6809 16.2844C14.1447 16.6768 14.6084 17.0692 15.1079 17.3903C15.6073 17.7471 16.1425 17.9968 16.7489 18.1752C16.1425 18.1395 15.536 17.8898 14.9652 17.6044C14.3944 17.319 13.8949 16.9622 13.3955 16.5698C12.4323 15.7849 11.5404 14.8931 10.7556 13.9655C9.97073 13.0023 9.25723 12.0034 8.65076 10.8975C8.36536 10.3981 8.07996 9.82727 7.83024 9.25647C7.61619 8.68567 7.43782 8.0792 7.40214 7.47273ZM5.33301 12.2888C5.7611 13.1807 6.29623 14.0012 6.93837 14.679C7.61619 15.3569 8.40104 15.892 9.29291 16.2844C10.1491 16.6768 11.1123 16.9622 12.0042 17.3546C12.468 17.5687 12.9317 17.7827 13.3242 18.1395C13.7166 18.4606 14.002 18.96 14.0733 19.4238C13.8949 18.96 13.5739 18.6033 13.1815 18.3535C12.789 18.1038 12.3253 17.9254 11.8615 17.7827C10.9339 17.4617 9.97073 17.2119 9.04318 16.7838C8.11564 16.3557 7.25944 15.785 6.6173 15.0001C5.97515 14.1796 5.54706 13.252 5.33301 12.2888ZM18.2116 16.7125C17.6408 16.9622 16.963 17.0692 16.3208 16.7838C15.6787 16.4984 15.3219 15.8563 15.0722 15.2855C14.5728 14.0726 14.3944 12.8239 14.1447 11.611C13.8949 10.3981 13.6096 9.18512 13.0744 8.11488C12.5393 7.04464 11.6474 6.08142 10.4702 5.65332C11.0766 5.79602 11.6831 6.08142 12.1826 6.47384C12.682 6.86626 13.1101 7.40138 13.4312 7.9365C14.0733 9.04242 14.3944 10.3267 14.6798 11.5397L15.0365 13.3947C15.1436 14.0012 15.2863 14.6077 15.5003 15.1785C15.7144 15.7493 15.9641 16.2844 16.4635 16.6055C16.9273 16.8909 17.6051 16.8552 18.2116 16.7125Z" fill="#231F20"/>
<path d="M16.6061 6.65186C16.9272 6.8659 17.1769 7.18698 17.3553 7.54372C17.5336 7.90047 17.712 8.25722 17.819 8.64964C18.0688 9.39881 18.1758 10.1837 18.2115 11.0042C18.2828 12.5739 17.8904 14.2506 16.9985 15.6062C16.5348 16.284 15.964 16.8548 15.2861 17.3186C14.6083 17.7824 13.8591 18.1034 13.0743 18.2818C11.5403 18.6742 9.89925 18.6386 8.36523 18.3888C9.93492 18.4245 11.5046 18.3532 12.9316 17.8894C14.3943 17.4256 15.6786 16.5694 16.4991 15.3208C17.3553 14.0722 17.712 12.5382 17.7477 11.0398C17.7477 10.2907 17.6763 9.50584 17.5336 8.75667C17.3909 7.97182 17.1769 7.18698 16.6061 6.65186Z" fill="#231F20"/>
</svg>
