<svg width="32" height="32" viewBox="0 0 32 32" fill="none" xmlns="http://www.w3.org/2000/svg">
<rect width="32" height="32" rx="16" fill="#367E60"/>
<path d="M6.5166 9.1565L9.40846 6.26465L10.1126 6.96877L7.22072 9.86062L6.5166 9.1565ZM11.5695 9.88374L14.4617 6.99259L15.1659 7.69671L12.2736 10.5879L11.5695 9.88374ZM21.4873 24.1286L24.3798 21.2374L25.0839 21.9419L22.1914 24.8331L21.4873 24.1286ZM20.765 19.0444L23.6576 16.1532L24.3617 16.8577L21.4688 19.7488L20.765 19.0444Z" fill="#A5BAAD"/>
<path d="M24.0094 26.2084L22.338 11.2371L20.0976 8.99671L5.12627 7.32532C4.41504 7.25419 4.55728 9.03227 5.3752 9.42344L16.6482 14.6865L21.9113 25.9595C22.3024 26.7774 24.0805 26.9197 24.0094 26.2084Z" fill="#9AFECE"/>
<path d="M25.751 7.50224C26.5334 5.97309 25.3599 4.79957 23.8307 5.58192C21.8748 6.57764 18.9944 8.81801 16.0783 11.6985C11.5265 16.2503 8.61042 20.7667 9.57058 21.7624C10.5307 22.7225 15.0826 19.8065 19.6345 15.2546C22.5149 12.3742 24.7553 9.45811 25.751 7.50224Z" fill="#FAFCFB"/>
<path d="M11.9186 26.0299L11.3496 20.7668L10.5673 19.9845L5.30416 19.4155C5.05523 19.3799 5.09079 20.02 5.37529 20.1623L9.32261 22.0115L11.1718 25.9588C11.314 26.2433 11.9542 26.2788 11.9186 26.0299Z" fill="#9AFECE"/>
<path d="M11.136 21.0513C9.5357 22.6516 8.07768 23.754 7.86431 23.505C7.65095 23.2917 8.75335 21.7981 10.3181 20.1978C11.9183 18.5975 13.3763 17.4951 13.6253 17.7441C13.8031 17.9574 12.7007 19.451 11.136 21.0513Z" fill="#A5BAAD"/>
<path d="M25.2173 8.07173C25.3951 7.43163 25.324 6.82708 24.9328 6.40034C24.5416 6.00917 23.9015 5.90248 23.297 6.11585L22.0879 6.86264C22.6924 6.64927 23.5815 6.96933 23.9726 7.3605C24.3994 7.78724 24.6839 8.64071 24.4705 9.24526L25.2173 8.07173Z" fill="#3E4347"/>
<path d="M23.0361 8.07004L25.0468 6.05762L25.2733 6.28379L23.2623 8.29657L23.0361 8.07004Z" fill="#FAFCFB"/>
</svg>
